HIERARCHY
ROOT Hips
{
	OFFSET 0.000000 0.000000 0.000000
	CHANNELS 6 Xposition Yposition Zposition Zrotation Yrotation Xrotation 
	JOINT LHipJoint
	{
		OFFSET 0.000000 0.000000 0.000000
		CHANNELS 3 Zrotation Yrotation Xrotation
		JOINT LeftUpLeg
		{
			OFFSET 1.363060 -1.794630 0.839290
			CHANNELS 3 Zrotation Yrotation Xrotation
			JOINT LeftLeg
			{
				OFFSET 2.448110 -6.726130 0.000000
				CHANNELS 3 Zrotation Yrotation Xrotation
				JOINT LeftFoot
				{
					OFFSET 2.562200 -7.039590 0.000000
					CHANNELS 3 Zrotation Yrotation Xrotation
					JOINT LeftToeBase
					{
						OFFSET 0.157640 -0.433110 2.322550
						CHANNELS 3 Zrotation Yrotation Xrotation
						End Site
						{
							OFFSET 0.000000 0.000000 0.000000
						}
					}
				}
			}
		}
	}
	JOINT RHipJoint
	{
		OFFSET 0.000000 0.000000 0.000000
		CHANNELS 3 Zrotation Yrotation Xrotation
		JOINT RightUpLeg
		{
			OFFSET -1.305520 -1.794630 0.839290
			CHANNELS 3 Zrotation Yrotation Xrotation
			JOINT RightLeg
			{
				OFFSET -2.542530 -6.985550 0.000000
				CHANNELS 3 Zrotation Yrotation Xrotation
				JOINT RightFoot
				{
					OFFSET -2.568260 -7.056230 0.000000
					CHANNELS 3 Zrotation Yrotation Xrotation
					JOINT RightToeBase
					{
						OFFSET -0.164730 -0.452590 2.363150
						CHANNELS 3 Zrotation Yrotation Xrotation
						End Site
						{
							OFFSET 0.000000 0.000000 0.000000
						}
					}
				}
			}
		}
	}
}
MOTION
Frames: 28
Frame Time: 0.008333
3.500124 17.303848 2.380455 179.262200 -84.234777 -166.115862 -10.206858 1.670350 1.291546 -11.424766 0.878669 -9.601257 -2.442163 -1.015995 6.226398 0.757140 3.156640 -8.708173 -0.158700 -0.000001 -27.656700 9.310009 -0.019054 1.028883 6.868839 0.639530 -38.571717 1.363862 -2.417990 36.553011 -0.934452 -3.068429 -4.678062 -0.460300 0.000000 -40.378500
3.322642 17.280524 2.364507 178.793212 -84.420892 -165.634465 -10.243397 1.725214 1.165098 -11.378917 1.387576 -8.579856 -2.491252 -1.061072 5.562064 0.671399 2.502441 -8.864047 -0.163600 0.000000 -28.312200 9.198953 0.043369 1.218042 6.845147 0.733244 -39.003827 1.565550 -2.167487 33.439388 -0.925863 -3.099522 -4.095399 -0.546500 -0.000000 -41.081499
3.144788 17.252161 2.345895 177.727132 -84.597668 -164.546710 -10.274060 1.780241 1.035060 -11.374168 1.884949 -7.601681 -2.545376 -1.102502 4.987652 0.590373 1.850267 -9.059111 -0.165300 0.000000 -29.010800 9.103621 0.106003 1.420866 6.752049 0.798908 -39.412356 1.759777 -1.893843 30.263449 -0.914522 -3.144002 -3.462346 -0.641900 0.000000 -41.535000
2.966528 17.219013 2.324567 175.964797 -84.768288 -162.759994 -10.297248 1.834772 0.900777 -11.414563 2.360401 -6.652356 -2.603656 -1.140518 4.500050 0.516647 1.220746 -9.294068 -0.163700 0.000000 -29.723100 9.026005 0.171682 1.632264 6.584995 0.824314 -39.793555 1.948126 -1.597909 27.050994 -0.891610 -3.147873 -2.826082 -0.734600 0.000001 -41.700700
2.787885 17.181491 2.300548 173.446713 -84.937250 -160.221976 -10.310528 1.887758 0.762538 -11.499250 2.802093 -5.718226 -2.664632 -1.175517 4.093768 0.452488 0.633576 -9.569078 -0.158800 -0.000000 -30.422600 8.967541 0.243202 1.846688 6.345116 0.797541 -40.144122 2.132090 -1.281774 23.828646 -0.847707 -3.054900 -2.228694 -0.809400 0.000000 -41.591400
2.608877 17.140063 2.274053 170.162504 -85.107984 -156.930836 -10.310095 1.938218 0.620024 -11.623115 3.199393 -4.778450 -2.726148 -1.207917 3.756587 0.399766 0.107710 -9.880591 -0.151600 -0.000000 -31.091000 8.929738 0.323760 2.056326 6.039583 0.705785 -40.454735 2.312682 -0.948925 20.622023 -0.773660 -2.811203 -1.702627 -0.849700 -0.000000 -41.267199
2.429279 17.095297 2.245415 166.165713 -85.283290 -152.941385 -10.291923 1.986258 0.475794 -11.775497 3.545537 -3.829704 -2.786371 -1.237817 3.483259 0.359070 -0.348775 -10.227401 -0.143200 0.000000 -31.721300 8.913510 0.416300 2.257454 5.682453 0.543751 -40.725802 2.490029 -0.602997 17.450833 -0.662967 -2.378126 -1.261956 -0.842800 0.000000 -40.847900
2.249133 17.047852 2.215016 161.548937 -85.460570 -148.353064 -10.251929 2.032783 0.331622 -11.943488 3.834038 -2.858741 -2.842880 -1.264750 3.259964 0.330787 -0.727243 -10.602766 -0.135000 -0.000000 -32.317900 8.919752 0.525001 2.443702 5.292175 0.308155 -40.948638 2.662992 -0.248248 14.329676 -0.512013 -1.732477 -0.902068 -0.781500 -0.000000 -40.490200
2.068099 16.998419 2.183320 156.440650 -85.633926 -143.293568 -10.188938 2.080141 0.190881 -12.113919 4.061576 -1.861171 -2.893765 -1.287782 3.074463 0.314220 -1.026815 -10.997104 -0.128200 0.000000 -32.896700 8.947733 0.653426 2.610493 4.889311 0.001581 -41.117536 2.829441 0.111367 11.266823 -0.321797 -0.874565 -0.599050 -0.666200 0.000000 -40.363600
1.885981 16.947641 2.150647 150.952303 -85.796728 -137.872586 -10.106369 2.130992 0.057498 -12.273936 4.232719 -0.849313 -2.938589 -1.305028 2.928721 0.306973 -1.261448 -11.402487 -0.123000 -0.000000 -33.485100 8.994172 0.803362 2.756645 4.492555 -0.366943 -41.234891 2.986139 0.472250 8.266266 -0.098823 0.167921 -0.314309 -0.504700 0.000000 -40.632000
1.702787 16.896188 2.117438 145.229240 -85.935222 -132.242204 -10.008722 2.186566 -0.067572 -12.418260 4.337916 0.203720 -2.974891 -1.315712 2.790702 0.308692 -1.420451 -11.793190 -0.120900 0.000000 -34.108900 9.054149 0.976789 2.872280 4.119452 -0.792907 -41.288233 3.129253 0.828032 5.344590 0.147672 1.358962 -0.013766 -0.305500 -0.000000 -41.384000
1.518080 16.844652 2.083834 139.359713 -86.047137 -126.482054 -9.905980 2.248657 -0.180559 -12.536731 4.391302 1.268387 -3.004053 -1.317645 2.680958 0.314828 -1.534813 -12.159049 -0.120200 -0.000000 -34.805000 9.120381 1.168614 2.962590 3.779338 -1.255968 -41.290421 3.254218 1.174522 2.512604 0.401831 2.625205 0.336576 -0.082900 0.000000 -42.636800
1.331728 16.793580 2.049944 133.453150 -86.126941 -120.701153 -9.805951 2.316854 -0.281295 -12.625581 4.395881 2.342807 -3.025931 -1.309648 2.597546 0.322841 -1.614060 -12.478719 -0.120300 -0.000000 -35.599500 9.186047 1.373607 3.026948 3.477635 -1.738823 -41.249056 3.356842 1.504605 -0.196721 0.647711 3.892602 0.745609 0.151001 -0.000000 -44.297300
1.143552 16.743485 2.015840 127.630731 -86.172616 -115.016149 -9.715301 2.390310 -0.369971 -12.681994 4.357218 3.417340 -3.040859 -1.290645 2.548164 0.330150 -1.669766 -12.734223 -0.119900 -0.000000 -36.509100 9.245386 1.583573 3.068742 3.213711 -2.218597 -41.178534 3.433935 1.811012 -2.739434 0.869746 5.079592 1.202736 0.382499 0.000000 -46.208800
0.953387 16.694834 1.981427 122.024707 -86.184100 -109.553749 -9.638201 2.467782 -0.446988 -12.705235 4.279556 4.477994 -3.049240 -1.259687 2.545771 0.334993 -1.708731 -12.911115 -0.118500 0.000000 -37.536700 9.294683 1.788904 3.094185 2.980892 -2.669089 -41.098231 3.483830 2.086808 -5.062348 1.054982 6.105232 1.678619 0.595800 0.000000 -48.197400
0.761284 16.648073 1.946817 116.854423 -86.164065 -104.533987 -9.576669 2.547120 -0.515922 -12.695459 4.167539 5.527991 -3.050357 -1.216264 2.590087 0.336984 -1.725606 -12.991817 -0.116300 0.000000 -38.682800 9.331015 1.980736 3.103854 2.780837 -3.073624 -41.025538 3.508972 2.323906 -7.093610 1.196862 6.916798 2.125856 0.776300 -0.000000 -50.142400
0.566879 16.603643 1.911776 112.237227 -86.129268 -100.048447 -9.521648 2.627076 -0.582320 -12.654300 4.020338 6.533777 -3.046059 -1.161246 2.704788 0.336194 -1.720655 -12.975580 -0.113900 0.000000 -39.929200 9.324982 2.141719 3.124745 2.569772 -3.298987 -42.030598 3.548416 2.326116 -6.671992 1.182522 7.519621 1.289892 0.905800 0.000001 -51.884600
0.370109 16.561971 1.876252 108.322137 -86.078733 -96.250724 -9.477761 2.707683 -0.642437 -12.588476 3.841682 7.488301 -3.035059 -1.092963 2.899545 0.334154 -1.679991 -12.858775 -0.112500 -0.000000 -41.264600 9.301778 2.271816 3.152228 2.365235 -3.417660 -43.296552 3.583437 2.245057 -5.436984 1.089333 7.849315 0.084615 0.972099 -0.000000 -53.341599
0.170947 16.523328 1.840248 105.249740 -86.016504 -93.289871 -9.448760 2.788568 -0.693873 -12.500816 3.641584 8.392123 -3.015933 -1.010512 3.179061 0.332361 -1.591639 -12.638823 -0.113300 0.000000 -42.693300 9.279958 2.371578 3.175784 2.194694 -3.488138 -44.182004 3.592612 2.198763 -4.648874 1.003125 7.885011 -0.790024 0.970300 -0.000001 -54.460900
-0.030795 16.487966 1.803621 103.069760 -85.952237 -91.215480 -9.432579 2.869653 -0.736301 -12.394947 3.425451 9.238166 -2.988205 -0.914167 3.549519 0.332593 -1.445570 -12.319481 -0.116600 -0.000001 -44.223900 9.260943 2.439100 3.195479 2.062311 -3.505200 -44.661313 3.575392 2.192729 -4.337897 0.939044 7.657557 -1.334050 0.903900 0.000000 -55.183800
-0.235496 16.455949 1.766062 101.764590 -85.891912 -90.006428 -9.426389 2.951592 -0.767907 -12.277272 3.194084 10.018359 -2.951568 -0.804758 4.014205 0.336886 -1.231851 -11.907861 -0.122200 0.000000 -45.871800 9.246287 2.474451 3.212834 1.964757 -3.463790 -44.729887 3.533218 2.228307 -4.502783 0.898786 7.212832 -1.558415 0.785199 0.000000 -55.461501
-0.443366 16.427197 1.727369 101.297200 -85.840142 -89.627752 -9.428603 3.034777 -0.788838 -12.151127 2.951783 10.734332 -2.905450 -0.683260 4.568307 0.346619 -0.945581 -11.408687 -0.128700 0.000001 -47.669801 9.235927 2.479274 3.227818 1.896527 -3.357530 -44.397895 3.469375 2.301627 -5.109313 0.873371 6.606863 -1.480009 0.633500 -0.000000 -55.275500
-0.654750 16.401530 1.687423 101.616421 -85.801457 -90.031523 -9.439962 3.119222 -0.800914 -12.013662 2.706640 11.393419 -2.848932 -0.550775 5.200833 0.362151 -0.589421 -10.823119 -0.133000 -0.000000 -49.664900 9.227789 2.455564 3.240166 1.849216 -3.176280 -43.692500 3.388430 2.403911 -6.091139 0.849156 5.894798 -1.120873 0.469500 -0.000000 -54.636400
-0.870010 16.378689 1.645911 102.596418 -85.774138 -91.087777 -9.459597 3.205490 -0.801960 -11.869196 2.453683 11.990958 -2.781798 -0.408811 5.906027 0.384072 -0.165683 -10.154961 -0.132000 -0.000001 -51.893400 9.221417 2.405601 3.255700 1.802157 -2.905860 -42.668747 3.294488 2.524021 -7.364654 0.812329 5.120558 -0.502845 0.310200 0.000001 -53.585600
-1.089581 16.358444 1.602754 104.142321 -85.769504 -92.684942 -9.481763 3.293262 -0.799139 -11.710909 2.192528 12.519549 -2.704201 -0.259642 6.674742 0.411579 0.313294 -9.402533 -0.121499 -0.000000 -54.391201 9.185728 2.325540 3.296797 1.707659 -2.424228 -42.354737 3.223965 2.474167 -6.891754 0.693990 4.375111 -0.750022 0.166699 0.000000 -52.206100
-1.313776 16.340650 1.558010 106.145939 -85.786150 -94.715461 -9.512022 3.383257 -0.788184 -11.531687 1.926454 12.972366 -2.615129 -0.103751 7.507374 0.442995 0.830127 -8.560541 -0.097100 -0.000001 -57.174100 9.125930 2.218996 3.360783 1.575405 -1.752585 -42.510442 3.163879 2.302516 -5.207563 0.535145 3.665114 -1.518387 0.043500 0.000000 -50.613500
-1.542831 16.325223 1.512100 108.558818 -85.823875 -97.135958 -9.562071 3.476535 -0.765221 -11.313650 1.671833 13.338904 -2.512886 0.059456 8.411429 0.475034 1.356361 -7.618079 -0.054900 -0.000000 -60.247900 9.054218 2.089026 3.439844 1.435303 -0.946973 -42.604761 3.095672 2.111102 -3.442836 0.379476 2.965674 -2.127820 -0.061800 0.000000 -48.921499
-1.776799 16.312158 1.465348 111.320362 -85.883843 -99.880656 -9.636386 3.575230 -0.727076 -11.046506 1.434181 13.595722 -2.396613 0.230184 9.404580 0.505274 1.868681 -6.564626 0.007099 0.000000 -63.545000 8.970379 1.936724 3.535475 1.305700 -0.028484 -42.655073 3.021464 1.905214 -1.652929 0.234840 2.290719 -2.511311 -0.153900 0.000000 -47.271700
